<svg width="808" height="808" viewBox="0 0 808 808" fill="none" xmlns="http://www.w3.org/2000/svg">
    <g filter="url(#filter0_d)">
        <path fill-rule="evenodd" clip-rule="evenodd"
              d="M571.481 713.406C561.699 713.652 553.229 713.864 541.661 713.616C525.792 713.276 510.505 693.859 495.431 674.711C486.835 663.794 478.309 652.963 469.783 645.807C446.302 626.098 419.947 622.759 402.696 622.759C385.445 622.759 372.986 623.8 346.151 638.512C334.543 644.875 323.293 659.387 312.015 673.937C297.22 693.022 282.376 712.172 266.605 713.082C238.812 714.685 214.852 715.219 186.58 713.082C177.198 712.372 167.447 708.603 158.307 702.671C148.008 695.987 138.485 686.559 131.141 675.67C125.362 667.101 118.535 647.878 118.535 647.878L117.097 540.454C117.097 540.454 128.475 498.395 174.121 469.126C194.727 455.912 226.417 442.906 265.223 433.382C289.7 427.374 317.008 422.752 346.151 420.338C364.364 418.829 383.293 418.183 402.696 418.599C429.221 419.168 450.946 419.669 473.616 421.905C495.947 424.107 519.195 427.993 548.849 435.285C579.861 442.91 605.928 453.076 626.957 465.697C644.111 475.992 657.913 487.921 668.312 501.439C675.772 511.138 680.765 519.547 685.419 532.971C691.11 549.387 690.929 562.772 690.728 577.603C690.685 580.814 690.64 584.093 690.655 587.485C690.792 620.357 689.252 639.327 687.336 650.551C686.095 657.813 674.022 682.079 654.75 698.16C644.237 706.933 631.581 713.27 617.374 713.082C595.808 712.795 582.77 713.123 571.481 713.406ZM135.785 557.022L142.494 568.78L198.559 511.593L190.413 499.835L135.785 557.022ZM142.494 586.951L150.64 601.916L235.936 519.076L223.477 505.18L142.494 586.951Z"
              fill="black"/>
        <path fill-rule="evenodd" clip-rule="evenodd"
              d="M40.4263 644.357V544.949C42.1281 516.588 49.9581 490.677 63.1647 467.453C79.3959 438.912 103.748 414.43 134.827 394.452C156.228 380.695 180.819 369.074 208.143 359.733C234.625 350.68 243.604 348.699 294.877 339.132C346.151 329.565 403.654 332.237 403.654 332.237C403.654 332.237 491.644 334.455 533.994 342.322C582.61 351.353 628.344 366.418 666.251 387.846C699.864 406.846 727.323 437.921 745.18 469.591C759.672 495.294 767.84 521.39 767.84 541.742V645.426C765.129 664.242 760.186 681.791 753.397 697.802C745.203 717.125 734.32 734.208 721.42 748.575C702.266 769.907 678.668 785.252 652.834 793.054C641.69 796.419 630.13 798.38 618.332 798.813C570.405 800.571 562.313 800.016 553.783 799.43C549.35 799.126 544.798 798.813 534.473 798.813C504.284 798.813 478.611 774.763 456.365 753.385C448.842 746.155 443.338 738.62 438.366 731.812C428.635 718.491 420.941 707.956 404.133 707.956C386.793 707.956 375.484 723.901 365.021 738.653C360.159 745.508 355.48 752.105 350.463 756.725C334.65 771.29 299.961 800.448 270.438 798.813H189.934C157.349 803.623 55.2809 764.608 40.4263 644.357ZM74.1515 569.502C74.413 562.604 74.9231 555.715 75.8861 542.276C77.8815 514.432 95.533 486.159 95.533 486.159C95.533 486.159 126.373 447.225 151.119 429.507C173.789 413.277 190.078 407.622 213.454 399.507C216.796 398.347 220.284 397.136 223.957 395.837C254.468 385.042 272.313 381.257 303.982 376.062C342.557 369.734 403.654 369.575 403.654 369.575C403.654 369.575 476.214 371.393 523.452 379.803C572.979 388.621 606.252 403.003 641.812 420.422C673.343 435.867 692.606 457.299 711.774 483.487C725.782 502.625 732.859 540.673 732.859 540.673L735.255 619.237C735.255 619.237 728.105 683.532 702.669 715.439C682.396 740.87 668.957 748.506 642.291 756.591C631.194 759.956 623.982 760.307 614.154 760.784C610.949 760.94 607.465 761.109 603.477 761.401C572.799 763.647 540.703 761.401 527.285 758.729C513.868 756.057 503.623 748.255 490.867 737.351C476.558 725.121 460.198 698.871 460.198 698.871C460.198 698.871 439.593 666.802 403.654 666.803C367.714 666.804 348.067 698.871 348.067 698.871C348.067 698.871 316.92 753.385 274.751 758.729C254.024 761.356 244.989 762.563 235.926 762.857C226.55 763.161 217.142 762.488 194.726 761.401C150.64 759.264 73.9693 701.008 73.9693 634.202C73.9693 592.478 73.7164 580.977 74.1515 569.502Z"
              fill="black"/>
        <path d="M25.0921 637.6C27.3154 595.592 27.2699 571.709 25.0921 528.572C12.1635 537.459 3.70619 560.588 4.00766 584.155C4.29932 606.955 12.4877 630.635 25.0921 637.6Z" fill="black"/>
        <path d="M782.908 528.572C780.685 570.58 780.73 594.463 782.908 637.6C795.837 628.712 804.294 605.584 803.993 582.017C803.701 559.217 795.512 535.537 782.908 528.572Z" fill="black"/>
        <path d="M473.137 66.8065C419.165 57.8888 388.637 57.7848 333.692 66.8065C339.043 27.6165 364.36 0.000113653 402.217 0.000144701C440.073 0.000175749 463.553 21.3781 473.137 66.8065Z" fill="black"/>
        <path d="M284.335 110.262C319.168 92.2221 359.412 80.7022 403.654 80.7022C424.068 80.7022 458.985 83.9883 498.813 99.9424C536.015 114.845 577.503 140.8 615.457 185.455C642.381 217.131 660.868 250.689 673.539 281.121C697.854 339.519 700.753 386.408 700.753 386.408C663.349 360.777 616.184 341.198 564.183 328.042C513.727 315.278 458.718 308.561 403.654 308.232C344.693 307.88 296.794 316.016 232.103 329.567C167.412 343.118 107.513 386.408 107.513 386.408C107.513 386.408 118.036 324.007 130.035 293.414C150.609 240.959 181.807 192.975 204.789 170.823C241.176 135.751 253.142 126.417 284.335 110.262Z" fill="black"/>
    </g>
    <defs>
        <filter id="filter0_d" x="-0.000145216" y="0.000144701" width="808" height="808" filterUnits="userSpaceOnUse" color-interpolation-filters="sRGB">
            <feFlood flood-opacity="0" result="BackgroundImageFix"/>
            <feColorMatrix in="SourceAlpha" type="matrix" values="0 0 0 0 0 0 0 0 0 0 0 0 0 0 0 0 0 0 127 0"/>
            <feOffset dy="4"/>
            <feGaussianBlur stdDeviation="2"/>
            <feColorMatrix type="matrix" values="0 0 0 0 0 0 0 0 0 0 0 0 0 0 0 0 0 0 0.25 0"/>
            <feBlend mode="normal" in2="BackgroundImageFix" result="effect1_dropShadow"/>
            <feBlend mode="normal" in="SourceGraphic" in2="effect1_dropShadow" result="shape"/>
        </filter>
    </defs>
</svg>
